<svg xmlns="http://www.w3.org/2000/svg" width="600" height="400" viewBox="0 0 600 400"><rect width="100%" height="100%" fill="#032b0d"/><path fill="#fff" d="M143.525 200.465v11.79q-1.39 1.85-4.35 3.29-2.95 1.44-7.46 1.44-5.74 0-9.37-3.57-3.63-3.56-3.63-9.26v-6.53q0-5.67 3.49-9.25 3.49-3.57 8.99-3.57 5.72 0 8.76 2.78t3.1 7.32l-.04.12h-5.91q-.17-2.49-1.59-3.94t-4.15-1.45q-2.87 0-4.64 2.23-1.76 2.22-1.76 5.72v6.57q0 3.57 1.83 5.8 1.82 2.22 4.92 2.22 2.19 0 3.52-.45t2.02-1.12v-5.8h-5.54v-4.34zm11.48-7.18v23.25h-6.28v-23.25zm0-10.27v4.71h-6.28v-4.71zm5.05 10.27h5.84l.28 3.33q1.16-1.78 2.86-2.77 1.69-.99 3.8-.99 3.52 0 5.5 2.22 1.98 2.21 1.98 6.94v14.52h-6.3v-14.5q0-2.34-.94-3.32-.95-.98-2.86-.98-1.25 0-2.24.51-.98.5-1.65 1.42v16.87h-6.27zm34.69 18.89q1.68 0 2.69-.98t1.01-2.61h5.69l.07.13q.08 3.52-2.66 5.9-2.74 2.37-6.8 2.37-5.2 0-8.01-3.29-2.81-3.28-2.81-8.44v-.64q0-5.14 2.8-8.45t8-3.31q4.3 0 6.93 2.45t2.55 6.45l-.05.13h-5.71q0-1.81-.99-3t-2.73-1.19q-2.49 0-3.51 1.93-1.02 1.94-1.02 4.99v.64q0 3.12 1.02 5.02t3.53 1.9m32.94 4.36h-6.27q-.35-.79-.6-1.68-.24-.88-.35-1.8-.97 1.7-2.55 2.81-1.57 1.12-3.77 1.12-3.65 0-5.63-1.88-1.97-1.88-1.97-5.12 0-3.42 2.63-5.3t7.68-1.88h3.5v-1.85q0-1.67-.88-2.6-.88-.92-2.6-.92-1.52 0-2.35.74t-.83 2.05l-6.06-.02-.02-.13q-.15-2.94 2.56-5.08t7.11-2.14q4.17 0 6.77 2.12t2.6 6.03v9.6q0 1.63.24 3.07.25 1.44.79 2.86m-12.01-4.19q1.65 0 2.94-.82 1.29-.81 1.74-1.89v-3.28h-3.5q-2 0-3.03 1-1.03.99-1.03 2.41 0 1.16.77 1.87.78.71 2.11.71m15.62-19.06h5.84l.28 3.33q1.16-1.78 2.86-2.77t3.8-.99q3.52 0 5.5 2.22 1.98 2.21 1.98 6.94v14.52h-6.3v-14.5q0-2.34-.94-3.32-.95-.98-2.86-.98-1.25 0-2.23.51-.99.5-1.66 1.42v16.87h-6.27zm44.86 23.25h-6.28q-.34-.79-.59-1.68-.24-.88-.35-1.8-.97 1.7-2.55 2.81-1.58 1.12-3.77 1.12-3.65 0-5.63-1.88-1.97-1.88-1.97-5.12 0-3.42 2.63-5.3t7.68-1.88h3.5v-1.85q0-1.67-.88-2.6-.88-.92-2.6-.92-1.52 0-2.35.74t-.83 2.05l-6.06-.02-.02-.13q-.15-2.94 2.56-5.08 2.7-2.14 7.11-2.14 4.17 0 6.77 2.12t2.6 6.03v9.6q0 1.63.24 3.07.25 1.44.79 2.86m-12.01-4.19q1.65 0 2.94-.82 1.29-.81 1.74-1.89v-3.28h-3.5q-2 0-3.03 1-1.03.99-1.03 2.41 0 1.16.77 1.87.78.71 2.11.71m46.43-14.39v4.83h-12.96v8.94h15.15v4.81h-21.42v-31.28h21.37v4.83h-15.1v7.87zm18.09 18.58h-12.06v-31.28h10.57q5.52 0 8.62 2.15 3.09 2.15 3.09 6.42 0 2.17-1.15 3.88t-3.34 2.57q2.82.6 4.22 2.57 1.41 1.98 1.41 4.58 0 4.49-2.96 6.8-2.97 2.31-8.4 2.31m.47-13.84h-6.25v9.03h5.78q2.49 0 3.8-1.09 1.31-1.08 1.31-3.21 0-2.3-1.12-3.51-1.12-1.22-3.52-1.22m-6.25-12.61v8.27h4.51q2.51 0 3.87-1.03 1.35-1.03 1.35-3 0-2.17-1.37-3.21-1.36-1.03-4.07-1.03zm32.7 26.45h-10.75v-31.28h10.75q5.73 0 9.45 3.66t3.72 9.4v5.18q0 5.76-3.72 9.4t-9.45 3.64m-.33-26.45h-4.14v21.64h4.14q3.38 0 5.29-2.28t1.91-5.95v-5.22q0-3.63-1.91-5.91t-5.29-2.28m49.93 21.64v4.81h-21.35v-4.1l10.12-10.85q2.19-2.52 3.11-4.25.93-1.73.93-3.21 0-1.97-1.07-3.23-1.06-1.26-3.02-1.26-2.17 0-3.29 1.47-1.13 1.47-1.13 3.92h-6.1l-.05-.12q-.1-4.24 2.79-7.17t7.78-2.93q4.84 0 7.6 2.51t2.76 6.7q0 2.84-1.56 5.24-1.56 2.39-5.14 6.28l-5.57 6.08.04.11zm24.97-14.27v6.9q0 6.21-2.85 9.42t-7.7 3.21q-4.9 0-7.76-3.21-2.85-3.21-2.85-9.42v-6.9q0-6.19 2.84-9.42 2.85-3.23 7.73-3.23 4.85 0 7.72 3.23t2.87 9.42m-6.25 7.5v-8.14q0-3.72-1.12-5.45t-3.22-1.73q-2.13 0-3.23 1.72-1.09 1.72-1.09 5.46v8.14q0 3.78 1.1 5.5 1.11 1.72 3.26 1.72 2.1 0 3.2-1.72t1.1-5.5m31.77 6.77v4.81h-21.35v-4.1l10.11-10.85q2.2-2.52 3.12-4.25t.92-3.21q0-1.97-1.06-3.23t-3.02-1.26q-2.17 0-3.3 1.47-1.12 1.47-1.12 3.92h-6.11l-.04-.12q-.11-4.24 2.78-7.17t7.79-2.93q4.84 0 7.6 2.51t2.76 6.7q0 2.84-1.56 5.24-1.56 2.39-5.15 6.28l-5.56 6.08.04.11zm16.46-26.92q1.76 0 3.25.33 1.5.33 3 .98l-1.12 4.6q-1.42-.5-2.52-.75-1.11-.24-2.57-.24-2.86 0-4.59 2.14-1.73 2.13-1.6 5.91l.07.11q1.05-1.09 2.66-1.72 1.61-.62 3.63-.62 4.19 0 6.57 2.98 2.37 2.97 2.37 7.59 0 4.73-2.93 7.8t-7.6 3.07q-4.96 0-8.08-3.36-3.11-3.36-3.11-9.31v-6.11q0-6.14 3.54-9.77 3.55-3.63 9.03-3.63m-1.44 15.49q-1.74 0-2.97.56-1.22.55-1.89 1.52v2.09q0 3.71 1.35 5.71 1.34 2 3.57 2 1.94 0 3.11-1.77 1.17-1.78 1.17-4.29 0-2.6-1.18-4.21t-3.16-1.61"/></svg>